PathFileType	4	(X/Y/Z)	/Users/niels/Desktop/University/Third Semester/Perception and Action/Exam/Gymnastics Motion Tracking/Code for Gym Tracking/Analyzed Data/Webcam_Backflip/id2_2_trajectory_Sports2D/id2_2_trajectory_Sports2D_px_person00.trc
DataRate	CameraRate	NumFrames	NumMarkers	Units	OrigDataRate	OrigDataStartFrame	OrigNumFrames
29.714285714285715	29.714285714285715	12	22	m	29.714285714285715	78	105
Frame#	Time	Hip			RHip			RKnee			RAnkle			RBigToe			RSmallToe			RHeel			LHip			LKnee			LAnkle			LBigToe			LSmallToe			LHeel			Neck			Head			Nose			RShoulder			RElbow			RWrist			LShoulder			LElbow			LWrist		
		X1	Y1	Z1	X2	Y2	Z2	X3	Y3	Z3	X4	Y4	Z4	X5	Y5	Z5	X6	Y6	Z6	X7	Y7	Z7	X8	Y8	Z8	X9	Y9	Z9	X10	Y10	Z10	X11	Y11	Z11	X12	Y12	Z12	X13	Y13	Z13	X14	Y14	Z14	X15	Y15	Z15	X16	Y16	Z16	X17	Y17	Z17	X18	Y18	Z18	X19	Y19	Z19	X20	Y20	Z20	X21	Y21	Z21	X22	Y22	Z22
78	2.625	0.9419097459888053	-0.32884164736050525	0.0	0.9475912147436176	-0.3271115195366797	0.0	0.872894689877831	-0.23795973496138442	0.0	0.939024461132648	-0.1979102611255174	0.0	0.9066854529731817	-0.17571029306452313	0.0	0.9160653418252938	-0.15720771213139595	0.0	0.9439482690097851	-0.20401351785151617	0.0	0.92298697551743	-0.3229803409419702	0.0	0.8686789110351899	-0.24672485348075404	0.0	0.9267934957543411	-0.1999673463883909	0.0	0.9020446210766718	-0.16288047801542693	0.0	0.9060302282207342	-0.15758927680402912	0.0	0.9452875446644732	-0.19275855227259922	0.0	0.8153088212667243	-0.34675784171618296	0.0	0.7530855081314752	-0.32153232637182977	0.0	0.7931749773025304	-0.3152128534993882	0.0	0.8313901460960983	-0.342436337659415	0.0	0.9036730771530955	-0.28847480939984593	0.0	0.900289918178702	-0.22198904725245225	0.0	0.8251563563581491	-0.35063341281337734	0.0	0.8848491571256631	-0.2921164171654845	0.0	0.8759144468817013	-0.246517434422329	0.0
79	2.658653846153846	0.9424787093966305	-0.30182121153646396	0.0	0.947854513074284	-0.2992806468909085	0.0	0.8445854405436747	-0.23938215285302147	0.0	0.8843091004200444	-0.183128335345235	0.0	0.8446263656731416	-0.17564881408070737	0.0	0.8556791916861273	-0.15320897793050361	0.0	0.886782711681841	-0.1820385736840122	0.0	0.9236268874039387	-0.2984168375437361	0.0	0.8455930564303596	-0.24885059681318858	0.0	0.8703709006763909	-0.1879682008043972	0.0	0.8400374727056219	-0.1633871612249848	0.0	0.8448228722369545	-0.15768249778057886	0.0	0.8902163673196505	-0.17417626143560272	0.0	0.8308828835722389	-0.3621091565029325	0.0	0.7685723262380821	-0.35747944099774437	0.0	0.7981947257601176	-0.34176458016518935	0.0	0.8469410162298411	-0.3525201311241582	0.0	0.902018515663098	-0.2839519586970357	0.0	0.877061418970292	-0.22523015389999085	0.0	0.8418811143404402	-0.36286244526739814	0.0	0.8846009029151507	-0.28989925420777496	0.0	0.854831911598311	-0.253159318604846	0.0
80	2.692307692307692	0.9380218550813137	-0.2783297774188206	0.0	0.9424014533872873	-0.27543342862339176	0.0	0.8209212972242282	-0.2506686950000021	0.0	0.8303984867803549	-0.18829085172815252	0.0	0.7871488354008217	-0.19687471851334087	0.0	0.7971347105239583	-0.17398120526866398	0.0	0.8296961939788138	-0.18025897264245988	0.0	0.9222446949455335	-0.27774245090674526	0.0	0.8290647823758599	-0.26031394502998784	0.0	0.8165581504011145	-0.19500897927990685	0.0	0.783863582610973	-0.18852869454914148	0.0	0.7887074411469244	-0.1826795272699369	0.0	0.8348040218628564	-0.1765325640161275	0.0	0.8506715872170248	-0.3767884551587965	0.0	0.7924923791493839	-0.3941208734624971	0.0	0.8092576253811653	-0.3700003164254522	0.0	0.8653191831626141	-0.3621195170878856	0.0	0.8970475463898585	-0.28075680229392913	0.0	0.849969529175153	-0.23492655044557892	0.0	0.8624511588137029	-0.37343938431647894	0.0	0.8834594939032451	-0.2891861489081042	0.0	0.8352756544113666	-0.263291903268811	0.0
81	2.7259615384615383	0.9289047055293612	-0.26064807537157225	0.0	0.9317816425784624	-0.25786065687854137	0.0	0.803623100422035	-0.27059087180980035	0.0	0.7830026918867476	-0.21218226534174006	0.0	0.740659794933414	-0.23669679459792328	0.0	0.7472865305713681	-0.21564788153301384	0.0	0.7787294039851305	-0.19857828249260775	0.0	0.9180216892959108	-0.26301131014610923	0.0	0.8190055126455046	-0.2797972466441747	0.0	0.7717174466793333	-0.21980906385375315	0.0	0.7398364619289116	-0.23374526995182515	0.0	0.7443398222588901	-0.22776784838715097	0.0	0.7851704509612797	-0.19880172215059938	0.0	0.8734904173414433	-0.388709950325643	0.0	0.8239642310887463	-0.4270073229486652	0.0	0.8269108908176395	-0.39655848069736677	0.0	0.8855533870804119	-0.36989639572292204	0.0	0.8905079762346613	-0.2805455189387867	0.0	0.8254774191136289	-0.2522696837879495	0.0	0.8852811262584035	-0.380985358469823	0.0	0.8819966194082396	-0.2918130011376628	0.0	0.8227708415151457	-0.27855459934134613	0.0
82	2.7596153846153846	0.9160743781736027	-0.25088857646446955	0.0	0.9170200669205154	-0.24854282987367132	0.0	0.794961246026649	-0.2977419257880711	0.0	0.7463820802628192	-0.2526701942435328	0.0	0.7099144448533502	-0.2918978945538711	0.0	0.7117745785391074	-0.2736718220262342	0.0	0.7382355505005328	-0.23622035063767435	0.0	0.9105089160110893	-0.25600061663830703	0.0	0.8152269120213791	-0.30615463267139487	0.0	0.7399915615323058	-0.260473243796754	0.0	0.7125205646647251	-0.2936617672284436	0.0	0.7165648243224567	-0.28761953247639854	0.0	0.7459145872176721	-0.23946099616560376	0.0	0.8978155781573748	-0.3963802532473441	0.0	0.8611340196326421	-0.4524305121088376	0.0	0.85077929392448	-0.41853775795605735	0.0	0.9063741832264184	-0.3748888958879899	0.0	0.8845124035887576	-0.2842173317800049	0.0	0.8103041203707327	-0.2767762495437129	0.0	0.9084332899379907	-0.3848632484077708	0.0	0.8811084553925277	-0.29850303156173796	0.0	0.8208047181190029	-0.29976692642035935	0.0
83	2.793269230769231	0.9007262478399477	-0.250666184052595	0.0	0.8993568654452779	-0.24887636713761577	0.0	0.795291698158695	-0.33019995961798	0.0	0.7228658690216666	-0.3063683753981763	0.0	0.6967372453411212	-0.3575937390354923	0.0	0.6934172107122598	-0.3425379058494577	0.0	0.7107890267949124	-0.29057588211924823	0.0	0.8999225974746337	-0.2579295596471249	0.0	0.8169473409442984	-0.33796279110335053	0.0	0.7228969189998261	-0.3139246567062539	0.0	0.7037776602363667	-0.3621710480380119	0.0	0.7072582548382864	-0.35632169610083336	0.0	0.7199073827177117	-0.29552306415186486	0.0	0.9217758834566863	-0.39930829375373933	0.0	0.9010292621298847	-0.46828010139080944	0.0	0.8791486994438115	-0.4341257558414583	0.0	0.9262096555404093	-0.3767562581816039	0.0	0.8809573986187313	-0.2915020610155901	0.0	0.8088863311879945	-0.3059501956429289	0.0	0.9299323146217127	-0.38519140936241497	0.0	0.8818902406407716	-0.3083075476442167	0.0	0.8289905121473681	-0.3257313668478092	0.0
84	2.8269230769230766	0.8840518345808588	-0.26082728677643535	0.0	0.8802294791679101	-0.2595029748565705	0.0	0.8014945627189536	-0.3660597402927481	0.0	0.7127406160021077	-0.3690523357387325	0.0	0.7000785433346313	-0.42798418972108265	0.0	0.6920285723499013	-0.4162060928296591	0.0	0.697360251096092	-0.35699045766540227	0.0	0.8870287924482194	-0.2693518073846209	0.0	0.8223152573012936	-0.3734075326632542	0.0	0.719790770168996	-0.376015223159018	0.0	0.712550805582725	-0.4331905485532638	0.0	0.7152474175885621	-0.4277889967912418	0.0	0.708426568567418	-0.362255853937041	0.0	0.9432234975499468	-0.3981292678029203	0.0	0.9400003749728921	-0.47435746589855293	0.0	0.9091331909623521	-0.4428790877567075	0.0	0.9434083657080405	-0.37581960161709826	0.0	0.8807058620617433	-0.30110508064404495	0.0	0.8211706514447238	-0.33579998037044745	0.0	0.9480402580554103	-0.3827111001721203	0.0	0.8847763985047382	-0.31904551780758045	0.0	0.8434427878561918	-0.3528696575811028	0.0
85	2.860576923076923	0.867295387298421	-0.28155343625329193	0.0	0.8613839349829082	-0.280430067509779	0.0	0.8094792523988336	-0.4041778998549636	0.0	0.7148118621503089	-0.43652993349337027	0.0	0.7169999929076114	-0.4980269214951782	0.0	0.7052023930986558	-0.4894711124916073	0.0	0.6974155533236135	-0.4300985437862216	0.0	0.8731198424288348	-0.2903383173680295	0.0	0.8290478902529606	-0.41098752229383295	0.0	0.7286628130896462	-0.4423184122674913	0.0	0.7353588352637863	-0.5019567720147581	0.0	0.7369587369294958	-0.4970212631672396	0.0	0.711178825450153	-0.4344212857284644	0.0	0.9600638782091873	-0.3944127294715619	0.0	0.9746743868434588	-0.4722682033393532	0.0	0.9374145119132877	-0.44572180672427336	0.0	0.9565242603110199	-0.37300659169675615	0.0	0.8830204494230077	-0.3114386783695351	0.0	0.8429615649739434	-0.3620569996500207	0.0	0.9613554429616483	-0.37872500251596675	0.0	0.8886558770914089	-0.32868955135239586	0.0	0.8591296397354912	-0.37663813861301715	0.0
86	2.894230769230769	0.8518787329435713	-0.31238286080914346	0.0	0.8447324501352889	-0.31108323949915156	0.0	0.8171426019777216	-0.44419957273889954	0.0	0.7270770800945598	-0.505273810919048	0.0	0.7437607290666765	-0.5644144811748422	0.0	0.7293746433832334	-0.5589587363734801	0.0	0.7090650338904446	-0.5051852013605226	0.0	0.8599129478633853	-0.3204883374821415	0.0	0.8355226997747528	-0.4501477466729694	0.0	0.7466695818549944	-0.5089675749782399	0.0	0.7672044240244046	-0.5657017617367602	0.0	0.767415919681032	-0.5610237344028214	0.0	0.726200404174761	-0.5074752227605104	0.0	0.9706898413286926	-0.39038487976473296	0.0	1.0025171377409403	-0.4649488242823286	0.0	0.9609939923489259	-0.4447031085163497	0.0	0.964404616402911	-0.36994384884087317	0.0	0.8858060569610341	-0.3216313384940496	0.0	0.868020423980352	-0.38161367844521427	0.0	0.9687288403444638	-0.3752053286748532	0.0	0.8911599903164316	-0.33706765562719365	0.0	0.8714718029297644	-0.3941071209194203	0.0
87	2.9278846153846154	0.8393158006000235	-0.351911732473919	0.0	0.831951252223096	-0.3501300561681611	0.0	0.8245109771762349	-0.48612518594513265	0.0	0.747028659179146	-0.5727142472818715	0.0	0.7764888158437341	-0.6256964115812125	0.0	0.7606614543605825	-0.6232079653955185	0.0	0.7294578840542802	-0.5786807040970146	0.0	0.8492125966505466	-0.35861248117780026	0.0	0.8414263702129352	-0.4909854827670529	0.0	0.7705355731260856	-0.5732110355763052	0.0	0.8027901565727557	-0.6235697419607449	0.0	0.8014687405870861	-0.6188914304137748	0.0	0.7500959644671976	-0.577967923831116	0.0	0.9743030887226806	-0.38860908923353576	0.0	1.0219300129078006	-0.4558616635058388	0.0	0.977734283720869	-0.4425760434016183	0.0	0.9661570597589515	-0.36901371001769384	0.0	0.8864424723456912	-0.33239318799512957	0.0	0.8896591308659464	-0.3942148606591343	0.0	0.9693730657300399	-0.37465358794471804	0.0	0.890076234120844	-0.34668643663412524	0.0	0.8770970567171997	-0.40599276796877987	0.0
88	2.9615384615384612	0.8308764822115384	-0.3977944454225903	0.0	0.8240921858232716	-0.3954878982071001	0.0	0.8325190469484136	-0.5299472559319557	0.0	0.7717511379164504	-0.637260770732298	0.0	0.811443706971133	-0.6819636515487303	0.0	0.795284370283277	-0.6822327717098917	0.0	0.7552311811977326	-0.6482565937294017	0.0	0.8424263943647006	-0.40268096637213413	0.0	0.8476069841957123	-0.5335977803329952	0.0	0.7969653856220894	-0.6336733841238865	0.0	0.8378006622925204	-0.6762791196541849	0.0	0.8349170543508854	-0.6714579686425861	0.0	0.7786362371103495	-0.6438215420268906	0.0	0.9709921943474721	-0.391504890379306	0.0	1.0322626404964532	-0.4481707234111956	0.0	0.9865990536606675	-0.44219856235982735	0.0	0.9612719241377422	-0.37298467420955506	0.0	0.882764731221644	-0.3461883499992208	0.0	0.9018842798476412	-0.403410044766974	0.0	0.9631840113029732	-0.3794011340618654	0.0	0.884504885399259	-0.36159475634147736	0.0	0.8744764988663638	-0.41656997938290924	0.0
89	2.9951923076923075	0.8271402134317491	-0.4474782865357078	0.0	0.8213206251699559	-0.4448441429102124	0.0	0.8420286592074344	-0.575496850989245	0.0	0.7980402723065033	-0.6980667355217532	0.0	0.8451431592270608	-0.7342277164359399	0.0	0.829688798776274	-0.7369495533464966	0.0	0.7828173297672318	-0.7127126284896947	0.0	0.840094731369907	-0.4504543019873286	0.0	0.8551617520123311	-0.5778670374350079	0.0	0.8229762769597296	-0.6902359591414408	0.0	0.869479207838453	-0.7255357229983724	0.0	0.8649990868987978	-0.7206196688969763	0.0	0.8075175867498315	-0.7044828017715712	0.0	0.9615332448249911	-0.40080760520253006	0.0	1.033712559666343	-0.44420576051774785	0.0	0.9875908680405615	-0.44588472013806213	0.0	0.9499378689937111	-0.3841827237312809	0.0	0.8739375448931754	-0.3663398793052176	0.0	0.9010253607357867	-0.4153447099376073	0.0	0.9508692941900506	-0.3908812466482755	0.0	0.8748830575717617	-0.38495105786754735	0.0	0.863804486563109	-0.4314239608565495	0.0
